<mxfile host="app.diagrams.net" modified="2022-08-29T01:13:53.544Z" agent="5.0 (Windows NT 10.0; Win64; x64) AppleWebKit/537.36 (KHTML, like Gecko) Chrome/104.0.0.0 Safari/537.36" etag="JY99YnPlL2MDFTkna256" version="20.2.7" type="github">
  <diagram name="Page-1" id="c9db0220-8083-56f3-ca83-edcdcd058819">
    <mxGraphModel dx="868" dy="460" grid="1" gridSize="10" guides="1" tooltips="1" connect="1" arrows="1" fold="1" page="1" pageScale="1.5" pageWidth="826" pageHeight="1169" background="none" math="0" shadow="0">
      <root>
        <mxCell id="0" style=";html=1;" />
        <mxCell id="1" style=";html=1;" parent="0" />
        <mxCell id="CzayqD42HPKcdpD6ieUK-1" value="" style="rounded=0;whiteSpace=wrap;html=1;" parent="1" vertex="1">
          <mxGeometry x="40" y="20" width="1120" height="1120" as="geometry" />
        </mxCell>
        <mxCell id="CzayqD42HPKcdpD6ieUK-2" value="" style="rounded=0;whiteSpace=wrap;html=1;" parent="1" vertex="1">
          <mxGeometry x="40" y="40" width="1120" height="120" as="geometry" />
        </mxCell>
        <mxCell id="CzayqD42HPKcdpD6ieUK-4" value="Inicio" style="html=1;shadow=0;dashed=0;fillColor=#0085FC;strokeColor=none;fontSize=16;fontColor=#FFFFFF;align=left;spacing=15;" parent="1" vertex="1">
          <mxGeometry x="40" y="160" width="1120" height="60" as="geometry" />
        </mxCell>
        <mxCell id="CzayqD42HPKcdpD6ieUK-5" value="Items" style="fillColor=none;strokeColor=none;fontSize=14;fontColor=#ffffff;align=center;" parent="CzayqD42HPKcdpD6ieUK-4" vertex="1">
          <mxGeometry width="70" height="40" relative="1" as="geometry">
            <mxPoint x="60" y="10" as="offset" />
          </mxGeometry>
        </mxCell>
        <mxCell id="CzayqD42HPKcdpD6ieUK-6" value="Proveedores" style="fillColor=none;strokeColor=none;fontSize=14;fontColor=#FFFFFF;align=center;" parent="CzayqD42HPKcdpD6ieUK-4" vertex="1">
          <mxGeometry width="70" height="40" relative="1" as="geometry">
            <mxPoint x="143" y="10" as="offset" />
          </mxGeometry>
        </mxCell>
        <mxCell id="CzayqD42HPKcdpD6ieUK-7" value="Empleados" style="fillColor=none;strokeColor=none;fontSize=14;fontColor=#FFFFFF;align=center;spacingRight=0;" parent="CzayqD42HPKcdpD6ieUK-4" vertex="1">
          <mxGeometry width="80" height="40" relative="1" as="geometry">
            <mxPoint x="224" y="10" as="offset" />
          </mxGeometry>
        </mxCell>
        <mxCell id="CzayqD42HPKcdpD6ieUK-8" value="Historial" style="fillColor=none;strokeColor=none;fontSize=14;fontColor=#FFFFFF;align=center;" parent="CzayqD42HPKcdpD6ieUK-4" vertex="1">
          <mxGeometry width="80" height="40" relative="1" as="geometry">
            <mxPoint x="296" y="10" as="offset" />
          </mxGeometry>
        </mxCell>
        <mxCell id="CzayqD42HPKcdpD6ieUK-9" value="" style="rounded=0;whiteSpace=wrap;html=1;fontColor=#000000;fontSize=51;" parent="1" vertex="1">
          <mxGeometry x="62" y="250" width="1058" height="190" as="geometry" />
        </mxCell>
        <mxCell id="CzayqD42HPKcdpD6ieUK-10" value="" style="rounded=0;whiteSpace=wrap;html=1;fontSize=51;fontColor=#000000;" parent="1" vertex="1">
          <mxGeometry x="64" y="480" width="1056" height="410" as="geometry" />
        </mxCell>
        <mxCell id="CzayqD42HPKcdpD6ieUK-11" value="" style="rounded=0;whiteSpace=wrap;html=1;fontSize=51;fontColor=#000000;fillStyle=auto;fillColor=#4D4D4D;" parent="1" vertex="1">
          <mxGeometry x="40" y="950" width="1120" height="210" as="geometry" />
        </mxCell>
        <mxCell id="arGuOmY1OhzPTYsuh53o-4" value="Bootstrap" style="html=1;shadow=0;dashed=0;fillColor=#F8F9FA;strokeColor=none;fontSize=16;fontColor=#181819;align=left;spacing=2;spacingLeft=55;" parent="1" vertex="1">
          <mxGeometry x="40" y="20" width="1120" height="140" as="geometry" />
        </mxCell>
        <mxCell id="arGuOmY1OhzPTYsuh53o-5" value="" style="html=1;shadow=0;dashed=0;shape=mxgraph.bootstrap.logo;fillColor=#54407A;strokeColor=none;sketch=0;" parent="arGuOmY1OhzPTYsuh53o-4" vertex="1">
          <mxGeometry width="40" height="40" relative="1" as="geometry">
            <mxPoint x="10" y="50" as="offset" />
          </mxGeometry>
        </mxCell>
        <mxCell id="arGuOmY1OhzPTYsuh53o-18" value="email@example.com" style="strokeColor=none;fillColor=none;fontColor=#777777;whiteSpace=wrap;align=left;verticalAlign=middle;fontStyle=0;fontSize=14;labelBackgroundColor=none;" parent="arGuOmY1OhzPTYsuh53o-4" vertex="1">
          <mxGeometry x="594" y="50" width="150" height="40" as="geometry" />
        </mxCell>
        <mxCell id="arGuOmY1OhzPTYsuh53o-19" value="&lt;span style=&quot;background-color: rgb(255, 255, 255);&quot;&gt;Password&lt;/span&gt;" style="html=1;shadow=0;dashed=0;shape=mxgraph.bootstrap.rrect;rSize=5;strokeColor=#999999;fillColor=#ffffff;fontColor=#777777;whiteSpace=wrap;align=left;verticalAlign=middle;fontStyle=0;fontSize=14;spacing=15;labelBackgroundColor=#FFFFCC;" parent="arGuOmY1OhzPTYsuh53o-4" vertex="1">
          <mxGeometry x="744" y="50" width="200" height="40" as="geometry" />
        </mxCell>
        <mxCell id="arGuOmY1OhzPTYsuh53o-20" value="&lt;span style=&quot;background-color: rgb(0, 133, 252);&quot;&gt;Confirm identity&lt;/span&gt;" style="html=1;shadow=0;dashed=0;shape=mxgraph.bootstrap.rrect;rSize=5;strokeColor=none;fillColor=#0085FC;fontColor=#ffffff;whiteSpace=wrap;align=center;verticalAlign=middle;fontStyle=0;fontSize=14;spacing=14;labelBackgroundColor=#FFFFCC;" parent="arGuOmY1OhzPTYsuh53o-4" vertex="1">
          <mxGeometry x="954" y="50" width="125" height="40" as="geometry" />
        </mxCell>
        <mxCell id="arGuOmY1OhzPTYsuh53o-6" value="&lt;span style=&quot;font-size: 40px;&quot;&gt;Proveedores&lt;/span&gt;&lt;br&gt;&lt;br&gt;This is a modified jumbotron that occupies the entire horizontal space of its parent." style="html=1;shadow=0;dashed=0;shape=mxgraph.bootstrap.rrect;rSize=5;html=1;whiteSpace=wrap;align=left;spacing=15;fontSize=14;verticalAlign=top;spacingTop=40;" parent="1" vertex="1">
          <mxGeometry x="60" y="250" width="1060" height="190" as="geometry" />
        </mxCell>
        <mxCell id="arGuOmY1OhzPTYsuh53o-23" value="" style="html=1;shadow=0;dashed=0;shape=mxgraph.bootstrap.rrect;rSize=5;fillColor=#ffffff;strokeColor=#999999;" parent="1" vertex="1">
          <mxGeometry x="170" y="220" width="170" height="70" as="geometry" />
        </mxCell>
        <mxCell id="arGuOmY1OhzPTYsuh53o-24" value="Consultar" style="fillColor=none;strokeColor=none;align=left;spacing=20;fontSize=14;" parent="arGuOmY1OhzPTYsuh53o-23" vertex="1">
          <mxGeometry width="170" height="30" relative="1" as="geometry">
            <mxPoint y="10" as="offset" />
          </mxGeometry>
        </mxCell>
        <mxCell id="arGuOmY1OhzPTYsuh53o-25" value="Agregar" style="fillColor=none;strokeColor=none;align=left;spacing=20;fontSize=14;" parent="arGuOmY1OhzPTYsuh53o-23" vertex="1">
          <mxGeometry width="170" height="30" relative="1" as="geometry">
            <mxPoint y="40" as="offset" />
          </mxGeometry>
        </mxCell>
        <mxCell id="arGuOmY1OhzPTYsuh53o-45" value="64x64" style="strokeColor=none;html=1;whiteSpace=wrap;fillColor=#868E96;fontColor=#DEE2E6;fillStyle=auto;" parent="1" vertex="1">
          <mxGeometry x="64" y="1023" width="64" height="64" as="geometry" />
        </mxCell>
        <mxCell id="arGuOmY1OhzPTYsuh53o-46" value="&lt;font color=&quot;#ffffff&quot;&gt;&lt;font style=&quot;font-size: 18px&quot;&gt;Center-aligned media&lt;/font&gt;&lt;br&gt;&lt;br&gt;Cras sit amet nibh libero, in gravida nulla. Nulla vel metus scelerisque ante sollicitudin. Cras purus odio, vestibulum in vulputate at, tempus viverra turpis. Fusce condimentum nunc ac nisi vulputate fringilla. Donec lacinia congue felis in faucibus.&lt;br&gt;&lt;br&gt;Donec sed odio dui. Nullam quis risus eget urna mollis ornare vel eu leo. Cum sociis natoque penatibus et magnis dis parturient montes, nascetur ridiculus mus.&lt;/font&gt;" style="strokeColor=none;fillColor=none;fontColor=#000000;perimeter=none;whiteSpace=wrap;resizeWidth=1;align=left;spacing=2;fontSize=14;verticalAlign=top;html=1;fillStyle=auto;" parent="1" vertex="1">
          <mxGeometry x="138" y="980" width="982" height="150" as="geometry" />
        </mxCell>
        <mxCell id="arGuOmY1OhzPTYsuh53o-79" value="" style="shape=table;startSize=30;container=1;collapsible=1;childLayout=tableLayout;fixedRows=1;rowLines=0;fontStyle=1;align=center;resizeLast=1;" parent="1" vertex="1">
          <mxGeometry x="87" y="520" width="1010" height="279" as="geometry" />
        </mxCell>
        <mxCell id="arGuOmY1OhzPTYsuh53o-80" value="" style="shape=tableRow;horizontal=0;startSize=0;swimlaneHead=0;swimlaneBody=0;fillColor=none;collapsible=0;dropTarget=0;points=[[0,0.5],[1,0.5]];portConstraint=eastwest;top=0;left=0;right=0;bottom=0;" parent="arGuOmY1OhzPTYsuh53o-79" vertex="1">
          <mxGeometry y="30" width="1010" height="30" as="geometry" />
        </mxCell>
        <mxCell id="arGuOmY1OhzPTYsuh53o-81" value="Cod" style="shape=partialRectangle;connectable=0;fillColor=none;top=0;left=0;bottom=0;right=0;fontStyle=1;overflow=hidden;" parent="arGuOmY1OhzPTYsuh53o-80" vertex="1">
          <mxGeometry width="90" height="30" as="geometry">
            <mxRectangle width="90" height="30" as="alternateBounds" />
          </mxGeometry>
        </mxCell>
        <mxCell id="arGuOmY1OhzPTYsuh53o-82" value="Proveedor 1" style="shape=partialRectangle;connectable=0;fillColor=none;top=0;left=0;bottom=0;right=0;align=left;spacingLeft=6;fontStyle=5;overflow=hidden;" parent="arGuOmY1OhzPTYsuh53o-80" vertex="1">
          <mxGeometry x="90" width="920" height="30" as="geometry">
            <mxRectangle width="920" height="30" as="alternateBounds" />
          </mxGeometry>
        </mxCell>
        <mxCell id="arGuOmY1OhzPTYsuh53o-83" value="" style="shape=tableRow;horizontal=0;startSize=0;swimlaneHead=0;swimlaneBody=0;fillColor=none;collapsible=0;dropTarget=0;points=[[0,0.5],[1,0.5]];portConstraint=eastwest;top=0;left=0;right=0;bottom=1;" parent="arGuOmY1OhzPTYsuh53o-79" vertex="1">
          <mxGeometry y="60" width="1010" height="109" as="geometry" />
        </mxCell>
        <mxCell id="arGuOmY1OhzPTYsuh53o-84" value="Cod" style="shape=partialRectangle;connectable=0;fillColor=none;top=0;left=0;bottom=0;right=0;fontStyle=1;overflow=hidden;" parent="arGuOmY1OhzPTYsuh53o-83" vertex="1">
          <mxGeometry width="90" height="109" as="geometry">
            <mxRectangle width="90" height="109" as="alternateBounds" />
          </mxGeometry>
        </mxCell>
        <mxCell id="arGuOmY1OhzPTYsuh53o-85" value="Proveedor 2" style="shape=partialRectangle;connectable=0;fillColor=none;top=0;left=0;bottom=0;right=0;align=left;spacingLeft=6;fontStyle=5;overflow=hidden;" parent="arGuOmY1OhzPTYsuh53o-83" vertex="1">
          <mxGeometry x="90" width="920" height="109" as="geometry">
            <mxRectangle width="920" height="109" as="alternateBounds" />
          </mxGeometry>
        </mxCell>
        <mxCell id="arGuOmY1OhzPTYsuh53o-86" value="" style="shape=tableRow;horizontal=0;startSize=0;swimlaneHead=0;swimlaneBody=0;fillColor=none;collapsible=0;dropTarget=0;points=[[0,0.5],[1,0.5]];portConstraint=eastwest;top=0;left=0;right=0;bottom=0;" parent="arGuOmY1OhzPTYsuh53o-79" vertex="1">
          <mxGeometry y="169" width="1010" height="30" as="geometry" />
        </mxCell>
        <mxCell id="arGuOmY1OhzPTYsuh53o-87" value="" style="shape=partialRectangle;connectable=0;fillColor=none;top=0;left=0;bottom=0;right=0;editable=1;overflow=hidden;" parent="arGuOmY1OhzPTYsuh53o-86" vertex="1">
          <mxGeometry width="90" height="30" as="geometry">
            <mxRectangle width="90" height="30" as="alternateBounds" />
          </mxGeometry>
        </mxCell>
        <mxCell id="arGuOmY1OhzPTYsuh53o-88" value="" style="shape=partialRectangle;connectable=0;fillColor=none;top=0;left=0;bottom=0;right=0;align=left;spacingLeft=6;overflow=hidden;" parent="arGuOmY1OhzPTYsuh53o-86" vertex="1">
          <mxGeometry x="90" width="920" height="30" as="geometry">
            <mxRectangle width="920" height="30" as="alternateBounds" />
          </mxGeometry>
        </mxCell>
        <mxCell id="arGuOmY1OhzPTYsuh53o-89" value="" style="shape=tableRow;horizontal=0;startSize=0;swimlaneHead=0;swimlaneBody=0;fillColor=none;collapsible=0;dropTarget=0;points=[[0,0.5],[1,0.5]];portConstraint=eastwest;top=0;left=0;right=0;bottom=0;" parent="arGuOmY1OhzPTYsuh53o-79" vertex="1">
          <mxGeometry y="199" width="1010" height="30" as="geometry" />
        </mxCell>
        <mxCell id="arGuOmY1OhzPTYsuh53o-90" value="" style="shape=partialRectangle;connectable=0;fillColor=none;top=0;left=0;bottom=0;right=0;editable=1;overflow=hidden;" parent="arGuOmY1OhzPTYsuh53o-89" vertex="1">
          <mxGeometry width="90" height="30" as="geometry">
            <mxRectangle width="90" height="30" as="alternateBounds" />
          </mxGeometry>
        </mxCell>
        <mxCell id="arGuOmY1OhzPTYsuh53o-91" value="" style="shape=partialRectangle;connectable=0;fillColor=none;top=0;left=0;bottom=0;right=0;align=left;spacingLeft=6;overflow=hidden;" parent="arGuOmY1OhzPTYsuh53o-89" vertex="1">
          <mxGeometry x="90" width="920" height="30" as="geometry">
            <mxRectangle width="920" height="30" as="alternateBounds" />
          </mxGeometry>
        </mxCell>
        <mxCell id="arGuOmY1OhzPTYsuh53o-92" value="Codigo" style="shape=partialRectangle;connectable=0;fillColor=none;top=0;left=0;bottom=0;right=0;fontStyle=1;overflow=hidden;" parent="1" vertex="1">
          <mxGeometry x="90" y="520" width="90" height="30" as="geometry">
            <mxRectangle width="90" height="30" as="alternateBounds" />
          </mxGeometry>
        </mxCell>
        <mxCell id="arGuOmY1OhzPTYsuh53o-93" value="Nombre" style="shape=partialRectangle;connectable=0;fillColor=none;top=0;left=0;bottom=0;right=0;fontStyle=1;overflow=hidden;" parent="1" vertex="1">
          <mxGeometry x="170" y="520" width="90" height="30" as="geometry">
            <mxRectangle width="90" height="30" as="alternateBounds" />
          </mxGeometry>
        </mxCell>
        <mxCell id="arGuOmY1OhzPTYsuh53o-94" value="NIT" style="shape=partialRectangle;connectable=0;fillColor=none;top=0;left=0;bottom=0;right=0;fontStyle=1;overflow=hidden;" parent="1" vertex="1">
          <mxGeometry x="390" y="520" width="90" height="30" as="geometry">
            <mxRectangle width="90" height="30" as="alternateBounds" />
          </mxGeometry>
        </mxCell>
        <mxCell id="arGuOmY1OhzPTYsuh53o-95" value="Correo" style="shape=partialRectangle;connectable=0;fillColor=none;top=0;left=0;bottom=0;right=0;fontStyle=1;overflow=hidden;" parent="1" vertex="1">
          <mxGeometry x="570" y="520" width="90" height="30" as="geometry">
            <mxRectangle width="90" height="30" as="alternateBounds" />
          </mxGeometry>
        </mxCell>
        <mxCell id="arGuOmY1OhzPTYsuh53o-96" value="Telefono" style="shape=partialRectangle;connectable=0;fillColor=none;top=0;left=0;bottom=0;right=0;fontStyle=1;overflow=hidden;" parent="1" vertex="1">
          <mxGeometry x="750" y="520" width="90" height="30" as="geometry">
            <mxRectangle width="90" height="30" as="alternateBounds" />
          </mxGeometry>
        </mxCell>
        <mxCell id="arGuOmY1OhzPTYsuh53o-97" value="25252525" style="shape=partialRectangle;connectable=0;fillColor=none;top=0;left=0;bottom=0;right=0;align=left;spacingLeft=6;fontStyle=5;overflow=hidden;" parent="1" vertex="1">
          <mxGeometry x="410" y="550" width="920" height="30" as="geometry">
            <mxRectangle width="920" height="30" as="alternateBounds" />
          </mxGeometry>
        </mxCell>
        <mxCell id="arGuOmY1OhzPTYsuh53o-98" value="ejemplo@ejm.com" style="shape=partialRectangle;connectable=0;fillColor=none;top=0;left=0;bottom=0;right=0;align=left;spacingLeft=6;fontStyle=5;overflow=hidden;" parent="1" vertex="1">
          <mxGeometry x="580" y="550" width="920" height="30" as="geometry">
            <mxRectangle width="920" height="30" as="alternateBounds" />
          </mxGeometry>
        </mxCell>
        <mxCell id="arGuOmY1OhzPTYsuh53o-99" value="3200505055" style="shape=partialRectangle;connectable=0;fillColor=none;top=0;left=0;bottom=0;right=0;align=left;spacingLeft=6;fontStyle=5;overflow=hidden;" parent="1" vertex="1">
          <mxGeometry x="760" y="550" width="920" height="30" as="geometry">
            <mxRectangle width="920" height="30" as="alternateBounds" />
          </mxGeometry>
        </mxCell>
        <mxCell id="arGuOmY1OhzPTYsuh53o-100" value="25252525" style="shape=partialRectangle;connectable=0;fillColor=none;top=0;left=0;bottom=0;right=0;align=left;spacingLeft=6;fontStyle=5;overflow=hidden;" parent="1" vertex="1">
          <mxGeometry x="410" y="620" width="920" height="30" as="geometry">
            <mxRectangle width="920" height="30" as="alternateBounds" />
          </mxGeometry>
        </mxCell>
        <mxCell id="arGuOmY1OhzPTYsuh53o-101" value="ejemplo@ejm.com" style="shape=partialRectangle;connectable=0;fillColor=none;top=0;left=0;bottom=0;right=0;align=left;spacingLeft=6;fontStyle=5;overflow=hidden;" parent="1" vertex="1">
          <mxGeometry x="580" y="610" width="920" height="30" as="geometry">
            <mxRectangle width="920" height="30" as="alternateBounds" />
          </mxGeometry>
        </mxCell>
        <mxCell id="arGuOmY1OhzPTYsuh53o-102" value="3200505055" style="shape=partialRectangle;connectable=0;fillColor=none;top=0;left=0;bottom=0;right=0;align=left;spacingLeft=6;fontStyle=5;overflow=hidden;" parent="1" vertex="1">
          <mxGeometry x="760" y="610" width="920" height="30" as="geometry">
            <mxRectangle width="920" height="30" as="alternateBounds" />
          </mxGeometry>
        </mxCell>
        <mxCell id="arGuOmY1OhzPTYsuh53o-103" value="Editar" style="html=1;shadow=0;dashed=0;shape=mxgraph.bootstrap.rrect;rSize=5;strokeColor=none;strokeWidth=1;fillColor=#0085FC;fontColor=#FFFFFF;whiteSpace=wrap;align=left;verticalAlign=middle;spacingLeft=0;fontStyle=1;fontSize=14;spacing=5;fillStyle=auto;" parent="1" vertex="1">
          <mxGeometry x="890" y="555" width="60" height="20" as="geometry" />
        </mxCell>
        <mxCell id="arGuOmY1OhzPTYsuh53o-105" value="Editar" style="html=1;shadow=0;dashed=0;shape=mxgraph.bootstrap.rrect;rSize=5;strokeColor=none;strokeWidth=1;fillColor=#0085FC;fontColor=#FFFFFF;whiteSpace=wrap;align=left;verticalAlign=middle;spacingLeft=0;fontStyle=1;fontSize=14;spacing=5;fillStyle=auto;" parent="1" vertex="1">
          <mxGeometry x="890" y="615" width="60" height="20" as="geometry" />
        </mxCell>
        <mxCell id="arGuOmY1OhzPTYsuh53o-107" value="Eliminar" style="html=1;shadow=0;dashed=0;shape=mxgraph.bootstrap.rrect;rSize=5;strokeColor=none;strokeWidth=1;fillColor=#4D4D4D;fontColor=#FFFFFF;whiteSpace=wrap;align=left;verticalAlign=middle;spacingLeft=0;fontStyle=1;fontSize=14;spacing=5;fillStyle=auto;" parent="1" vertex="1">
          <mxGeometry x="984" y="555" width="60" height="20" as="geometry" />
        </mxCell>
        <mxCell id="arGuOmY1OhzPTYsuh53o-108" value="Eliminar" style="html=1;shadow=0;dashed=0;shape=mxgraph.bootstrap.rrect;rSize=5;strokeColor=none;strokeWidth=1;fillColor=#4D4D4D;fontColor=#FFFFFF;whiteSpace=wrap;align=left;verticalAlign=middle;spacingLeft=0;fontStyle=1;fontSize=14;spacing=5;fillStyle=auto;" parent="1" vertex="1">
          <mxGeometry x="984" y="615" width="60" height="20" as="geometry" />
        </mxCell>
        <mxCell id="arGuOmY1OhzPTYsuh53o-109" value="Cod" style="shape=partialRectangle;connectable=0;fillColor=none;top=0;left=0;bottom=0;right=0;fontStyle=1;overflow=hidden;" parent="1" vertex="1">
          <mxGeometry x="87" y="690" width="90" height="30" as="geometry">
            <mxRectangle width="90" height="30" as="alternateBounds" />
          </mxGeometry>
        </mxCell>
        <mxCell id="arGuOmY1OhzPTYsuh53o-110" value="25252525" style="shape=partialRectangle;connectable=0;fillColor=none;top=0;left=0;bottom=0;right=0;align=left;spacingLeft=6;fontStyle=5;overflow=hidden;" parent="1" vertex="1">
          <mxGeometry x="410" y="690" width="920" height="30" as="geometry">
            <mxRectangle width="920" height="30" as="alternateBounds" />
          </mxGeometry>
        </mxCell>
        <mxCell id="arGuOmY1OhzPTYsuh53o-111" value="ejemplo@ejm.com" style="shape=partialRectangle;connectable=0;fillColor=none;top=0;left=0;bottom=0;right=0;align=left;spacingLeft=6;fontStyle=5;overflow=hidden;" parent="1" vertex="1">
          <mxGeometry x="580" y="690" width="920" height="30" as="geometry">
            <mxRectangle width="920" height="30" as="alternateBounds" />
          </mxGeometry>
        </mxCell>
        <mxCell id="arGuOmY1OhzPTYsuh53o-112" value="3200505055" style="shape=partialRectangle;connectable=0;fillColor=none;top=0;left=0;bottom=0;right=0;align=left;spacingLeft=6;fontStyle=5;overflow=hidden;" parent="1" vertex="1">
          <mxGeometry x="760" y="690" width="920" height="30" as="geometry">
            <mxRectangle width="920" height="30" as="alternateBounds" />
          </mxGeometry>
        </mxCell>
        <mxCell id="arGuOmY1OhzPTYsuh53o-113" value="Editar" style="html=1;shadow=0;dashed=0;shape=mxgraph.bootstrap.rrect;rSize=5;strokeColor=none;strokeWidth=1;fillColor=#0085FC;fontColor=#FFFFFF;whiteSpace=wrap;align=left;verticalAlign=middle;spacingLeft=0;fontStyle=1;fontSize=14;spacing=5;fillStyle=auto;" parent="1" vertex="1">
          <mxGeometry x="890" y="695" width="60" height="20" as="geometry" />
        </mxCell>
        <mxCell id="arGuOmY1OhzPTYsuh53o-114" value="Eliminar" style="html=1;shadow=0;dashed=0;shape=mxgraph.bootstrap.rrect;rSize=5;strokeColor=none;strokeWidth=1;fillColor=#4D4D4D;fontColor=#FFFFFF;whiteSpace=wrap;align=left;verticalAlign=middle;spacingLeft=0;fontStyle=1;fontSize=14;spacing=5;fillStyle=auto;" parent="1" vertex="1">
          <mxGeometry x="984" y="695" width="60" height="20" as="geometry" />
        </mxCell>
        <mxCell id="arGuOmY1OhzPTYsuh53o-115" value="Proveedpr 3" style="shape=partialRectangle;connectable=0;fillColor=none;top=0;left=0;bottom=0;right=0;align=left;spacingLeft=6;fontStyle=5;overflow=hidden;" parent="1" vertex="1">
          <mxGeometry x="180" y="685" width="920" height="30" as="geometry">
            <mxRectangle width="920" height="30" as="alternateBounds" />
          </mxGeometry>
        </mxCell>
        <mxCell id="arGuOmY1OhzPTYsuh53o-119" value="+ Agregar" style="html=1;shadow=0;dashed=0;shape=mxgraph.bootstrap.rrect;rSize=5;strokeColor=none;strokeWidth=1;fillColor=#6C767D;fontColor=#FFFFFF;whiteSpace=wrap;align=left;verticalAlign=middle;spacingLeft=10;fontStyle=1;fontSize=18;fillStyle=auto;" parent="1" vertex="1">
          <mxGeometry x="90" y="810" width="110" height="40" as="geometry" />
        </mxCell>
        <mxCell id="arGuOmY1OhzPTYsuh53o-154" value="Secondary" style="html=1;shadow=0;dashed=0;shape=mxgraph.bootstrap.rrect;rSize=5;strokeColor=#6C767D;strokeWidth=1;fillColor=none;fontColor=#6C767D;whiteSpace=wrap;align=center;verticalAlign=middle;spacingLeft=0;fontStyle=0;fontSize=16;spacing=5;" parent="1" vertex="1">
          <mxGeometry x="760" y="610" width="100" height="40" as="geometry" />
        </mxCell>
        <mxCell id="arGuOmY1OhzPTYsuh53o-155" value="Secondary" style="html=1;shadow=0;dashed=0;shape=mxgraph.bootstrap.rrect;rSize=5;strokeColor=#6C767D;strokeWidth=1;fillColor=none;fontColor=#6C767D;whiteSpace=wrap;align=center;verticalAlign=middle;spacingLeft=0;fontStyle=0;fontSize=16;spacing=5;" parent="1" vertex="1">
          <mxGeometry x="760" y="610" width="100" height="40" as="geometry" />
        </mxCell>
      </root>
    </mxGraphModel>
  </diagram>
</mxfile>
